<?xml version="1.0" encoding="UTF-8"?><svg id="Layer_2" xmlns="http://www.w3.org/2000/svg" viewBox="0 0 609.43 62.07"><defs><style>.cls-1{fill:#fff;}</style></defs><g id="Layer_1-2"><polygon class="cls-1" points="449.49 62.06 450.07 62.06 450.07 5.57 449.49 5.57 449.49 62.06 449.49 62.06"/><polygon class="cls-1" points="130.22 20.69 124.77 20.69 124.77 46.93 143.81 46.93 143.81 42.05 130.22 42.05 130.22 20.69 130.22 20.69"/><polygon class="cls-1" points="193.99 34.41 187.66 20.73 187 20.73 180.67 34.37 175.8 20.73 170 20.73 179.61 46.8 179.68 46.97 180.49 46.97 187.34 32.34 194.13 46.94 194.97 46.94 204.76 20.73 198.96 20.73 193.99 34.41 193.99 34.41"/><polygon class="cls-1" points="207.15 46.94 226.61 46.94 226.61 41.98 212.6 41.98 212.6 36.47 225.03 36.47 225.03 31.47 212.6 31.47 212.6 25.58 226.61 25.58 226.61 20.7 207.15 20.7 207.15 46.94 207.15 46.94"/><polygon class="cls-1" points="236.46 20.69 231.01 20.69 231.01 46.93 250.06 46.93 250.06 42.05 236.46 42.05 236.46 20.69 236.46 20.69"/><polygon class="cls-1" points="257.98 20.69 252.53 20.69 252.53 46.93 271.57 46.93 271.57 42.05 257.98 42.05 257.98 20.69 257.98 20.69"/><path class="cls-1" d="M299.99,28.21c0,.34-.06.7-.18,1.06-.12.36-.29.68-.52.96-.22.27-.5.5-.83.67-.32.17-.71.25-1.16.25h-5.77v-5.58h6.12c.3,0,.6.07.88.22.29.15.54.34.75.58.21.23.39.52.51.84.13.32.19.65.19,1M301.05,38.84c0,.38-.08.77-.23,1.15-.16.38-.37.74-.62,1.05-.26.31-.56.56-.91.74-.33.18-.69.27-1.07.27h-6.68v-6h6.16c1.05,0,1.88.27,2.47.81.59.54.88,1.19.88,1.98M304.74,34.82c-.51-.56-1.1-1.01-1.74-1.34-.25-.12-.49-.23-.75-.31.2-.09.39-.19.58-.31.54-.36,1-.8,1.38-1.31.38-.51.68-1.08.9-1.69.22-.61.33-1.2.33-1.75,0-1.49-.21-2.72-.62-3.68-.41-.96-.98-1.73-1.7-2.29-.71-.55-1.55-.93-2.49-1.14-.93-.2-1.93-.31-2.97-.31h-11.58v26.24h12.14c1.12,0,2.19-.13,3.18-.4,1.01-.26,1.9-.71,2.65-1.33.75-.62,1.36-1.44,1.79-2.45.43-1,.65-2.23.65-3.66,0-.83-.17-1.62-.5-2.35-.33-.72-.75-1.37-1.26-1.93"/><path class="cls-1" d="M324.08,38.08h-6.5l3.26-6.87,3.23,6.87h0ZM320.43,20.73l-13.41,26.2h5.94l1.97-4.04h11.78l2,4.04h5.94l-13.41-26.2h-.82Z"/><polygon class="cls-1" points="354.33 35.91 337.89 20.8 337.81 20.73 336.91 20.73 336.91 46.93 342.36 46.93 342.36 31.99 358.88 46.93 359.78 46.93 359.78 20.73 354.33 20.73 354.33 35.91 354.33 35.91"/><polygon class="cls-1" points="386.99 20.73 380.26 20.73 370.44 33.25 370.44 20.69 364.99 20.69 364.99 46.94 370.44 46.94 370.44 35.66 380.84 46.94 388.07 46.94 376.22 34.26 386.99 20.73 386.99 20.73"/><polygon class="cls-1" points="390.41 46.94 409.87 46.94 409.87 41.98 395.86 41.98 395.86 36.47 408.29 36.47 408.29 31.47 395.86 31.47 395.86 25.58 409.87 25.58 409.87 20.7 390.41 20.7 390.41 46.94 390.41 46.94"/><path class="cls-1" d="M428.69,32.87c-.35.34-.74.59-1.18.75-.45.16-.88.25-1.29.25h-6.49v-8.28h6.49c.81,0,1.45.15,1.92.45.47.3.85.68,1.1,1.11.26.44.44.9.53,1.39.09.5.14.93.14,1.29,0,.68-.12,1.28-.34,1.79-.23.5-.52.93-.87,1.27M419.73,38.75h4.46c.96,1.37,1.92,2.72,2.86,4.03.98,1.36,2,2.72,3.02,4.05l.08.11h6.52l-.31-.43c-2.03-2.8-4.11-5.61-6.19-8.37,1.51-.66,2.75-1.7,3.69-3.09,1-1.49,1.51-3.25,1.51-5.24,0-1.31-.23-2.55-.67-3.66-.44-1.12-1.08-2.09-1.87-2.9-.8-.81-1.77-1.44-2.89-1.89-1.12-.44-2.37-.67-3.71-.67h-11.94v26.24h5.45v-8.18h0Z"/><path class="cls-1" d="M90.02,24.37c-.83-.84-1.77-1.58-2.78-2.18-1.01-.61-2.12-1.08-3.29-1.42-1.18-.33-2.41-.5-3.67-.5-1.85,0-3.63.36-5.27,1.08-1.64.71-3.09,1.69-4.31,2.92-1.22,1.22-2.21,2.67-2.92,4.31-.71,1.64-1.08,3.41-1.08,5.27s.36,3.63,1.08,5.27c.71,1.64,1.69,3.09,2.92,4.31,1.22,1.22,2.68,2.2,4.31,2.92,1.64.71,3.42,1.08,5.27,1.08,1.26,0,2.49-.17,3.67-.5,1.18-.33,2.28-.81,3.29-1.42,1.01-.6,1.94-1.34,2.78-2.18.83-.84,1.54-1.8,2.11-2.85l.14-.26-5.08-2.05-.12.18c-.37.55-.8,1.07-1.28,1.56-.49.49-1.03.91-1.62,1.28-.59.36-1.22.65-1.87.85-.65.2-1.33.3-2.03.3-1.13,0-2.19-.24-3.17-.69-.98-.46-1.85-1.09-2.57-1.86-.72-.77-1.31-1.68-1.74-2.7-.43-1.01-.65-2.1-.65-3.23s.22-2.19.65-3.22c.43-1.03,1.01-1.94,1.74-2.71.72-.77,1.59-1.39,2.57-1.86.98-.46,2.05-.69,3.17-.69.7,0,1.38.1,2.03.3.65.2,1.28.49,1.87.85.59.36,1.13.79,1.62,1.26.49.48.92.99,1.28,1.54l.12.18,5.08-2.06-.15-.26c-.57-1.02-1.28-1.97-2.11-2.81"/><path class="cls-1" d="M115.5,33.81c0,1.13-.22,2.21-.64,3.23-.43,1.02-1.02,1.93-1.75,2.71-.73.78-1.6,1.41-2.58,1.87-.98.46-2.04.69-3.16.69s-2.19-.23-3.16-.69c-.98-.46-1.85-1.09-2.58-1.87-.73-.78-1.32-1.69-1.75-2.71-.43-1.02-.64-2.1-.64-3.23s.22-2.19.64-3.22c.43-1.03,1.02-1.94,1.75-2.71.73-.77,1.6-1.39,2.58-1.86.98-.46,2.04-.7,3.16-.7s2.19.24,3.16.7c.98.46,1.85,1.09,2.58,1.86.73.77,1.32,1.68,1.75,2.71.43,1.03.64,2.11.64,3.22M116.96,24.2c-1.23-1.22-2.68-2.21-4.31-2.92-1.64-.71-3.42-1.08-5.3-1.08s-3.63.36-5.27,1.08c-1.64.71-3.09,1.69-4.31,2.92-1.22,1.22-2.21,2.68-2.92,4.33-.71,1.65-1.07,3.43-1.07,5.29s.36,3.66,1.07,5.3c.71,1.64,1.7,3.09,2.92,4.31,1.22,1.22,2.67,2.2,4.31,2.92,1.64.71,3.41,1.08,5.27,1.08s3.66-.36,5.3-1.08c1.64-.71,3.09-1.69,4.31-2.92,1.22-1.23,2.21-2.68,2.92-4.31.71-1.64,1.08-3.43,1.08-5.3s-.36-3.63-1.07-5.29c-.71-1.65-1.69-3.11-2.92-4.33"/><path class="cls-1" d="M164.36,33.85c0,1.73-.24,3.15-.71,4.21-.47,1.06-1.08,1.89-1.8,2.48-.72.59-1.54.99-2.44,1.19-.91.2-1.83.31-2.71.31h-4.97v-16.39h4.97c.86,0,1.77.1,2.68.31.89.2,1.72.6,2.46,1.18.73.58,1.35,1.41,1.82,2.48.47,1.07.71,2.5.71,4.23M165.91,24c-2.4-2.19-5.51-3.3-9.23-3.3h-10.4v26.24h10.4c1.85,0,3.57-.28,5.12-.82,1.56-.55,2.94-1.37,4.11-2.44,1.29-1.17,2.27-2.6,2.92-4.26.65-1.65.98-3.53.98-5.59s-.33-3.91-.98-5.56c-.65-1.66-1.64-3.09-2.92-4.26"/><path class="cls-1" d="M464.77,43.22c2.76,2.04,5.77,3.98,11.22,3.98,5.92,0,9.97-2.62,9.97-8.03,0-7.03-6.7-7.53-9.86-8.17-2.76-.57-6.09-1.22-6.09-3.62,0-2.04,2.44-2.65,4.41-2.65,2.83,0,5.41,1.04,7.56,2.51l2.76-3.8c-2.65-2.01-5.38-3.37-9.79-3.37s-9.97,1.65-9.97,7.82,6.92,7.31,10,7.92c3.12.61,5.95,1.18,5.95,3.66,0,1.61-1.25,3.12-5.02,3.12-3.05,0-6.85-1.72-8.64-3.15l-2.51,3.8h0ZM510.13,24.9v-4.45h-19.29v26.24h19.29v-4.45h-14.3v-6.35h12.69v-4.45h-12.69v-6.56h14.3ZM520.73,42.25v-21.8h-5.02v26.24h18.89v-4.45h-13.87ZM557.63,24.9v-4.45h-19.29v26.24h19.29v-4.45h-14.3v-6.35h12.69v-4.45h-12.69v-6.56h14.3ZM581.98,28.88l4.7-1.9c-1.86-3.76-6.02-6.95-11.87-6.95-7.49,0-13.59,5.95-13.59,13.59s6.09,13.59,13.59,13.59c5.63,0,9.93-2.83,11.87-6.92l-4.7-1.9c-1.33,2.29-3.66,4.16-7.17,4.16-4.73,0-8.57-3.98-8.57-8.93s3.84-8.93,8.57-8.93c3.3,0,5.84,1.83,7.17,4.19h0ZM609.43,20.46h-20.04v4.45h7.53v21.8h5.02v-21.8h7.49v-4.45h0Z"/><polygon class="cls-1" points="38.01 18.65 44.08 14.61 50.14 18.65 48.16 11.64 53.88 7.12 46.6 6.84 44.08 0 41.55 6.84 34.27 7.12 39.99 11.64 38.01 18.65 38.01 18.65"/><path class="cls-1" d="M48.81,44.59c-1.01-1.38-2.29-2.45-3.83-3.2,1.12-.79,2.04-1.79,2.75-3,1.03-1.75,1.55-3.69,1.55-5.75,0-1.28-.23-2.58-.67-3.84-.45-1.26-1.09-2.41-1.91-3.4-.83-1.01-1.85-1.83-3.02-2.46-1.21-.64-2.57-.97-4.04-.97h-19.94v18.03c-1.97.1-3.83-.27-5.48-1.11-.85-.43-1.63-.98-2.36-1.59-.56-.47-1.09-.96-1.57-1.53-1.11-1.31-1.99-2.85-2.62-4.55-.63-1.71-.94-3.53-.94-5.43,0-1.7.27-3.41.8-5.09.52-1.67,1.31-3.18,2.35-4.51,1.03-1.32,2.32-2.39,3.84-3.21,2.19-1.17,4.99-1.55,7.98-.91.92.2,1.83.53,2.7.99.87.46,1.68,1.08,2.42,1.83.73.75,1.37,1.7,1.9,2.82l.45.94,5.37-3.48-.34-.72c-1.26-2.63-3.2-4.78-5.78-6.42-2.58-1.63-5.7-2.46-9.28-2.46-3,0-5.73.59-8.11,1.76-2.36,1.16-4.39,2.71-6.03,4.62-1.63,1.89-2.89,4.06-3.73,6.44-.84,2.37-1.27,4.79-1.27,7.18,0,2.54.46,5.07,1.38,7.51.91,2.45,2.22,4.66,3.89,6.59,1.67,1.93,3.67,3.51,5.95,4.71.21.11.43.19.64.29.13.06.27.12.41.18.41.18.82.34,1.24.48.28.09.57.18.85.26.43.12.87.22,1.31.31.29.06.59.11.89.15.75.1,1.52.16,2.31.16.27,0,.55,0,.82-.02,1.28-.06,2.6-.26,3.93-.6,1.61-.41,3.16-1.02,4.6-1.81.54-.3,1.07-.62,1.58-.97.34-.23.67-.48.98-.74.48-.38.94-.79,1.37-1.23.29-.29.57-.6.83-.92.26-.32.51-.65.74-.99.46-.68.85-1.42,1.18-2.19l.24-.61-.57-.51h0s-4.12-3.79-4.12-3.79c0,0-.42.97-.66,1.42-.23.44-.72,1.22-1.06,1.67-.49.64-.9,1.13-1.43,1.67-.3.3-.62.57-.94.83v-9.44h11.6c.66,0,1.27.13,1.86.4.58.26,1.07.64,1.46,1.11.41.49.75,1.09,1,1.77.25.69.38,1.44.38,2.22,0,.74-.13,1.45-.39,2.12-.27.67-.63,1.25-1.07,1.74-.45.49-.96.87-1.58,1.17-.59.28-1.25.42-1.98.42h-1.75c-.2.35-.4.7-.63,1.03-.52.78-1.13,1.51-1.79,2.18-.88.87-1.85,1.67-2.88,2.36-.17.11-.1.18,0,.18h8.57c.71,0,1.38.15,1.97.44.61.3,1.14.72,1.57,1.23.45.53.81,1.15,1.08,1.86.26.7.4,1.44.4,2.19s-.14,1.46-.42,2.14c-.27.67-.66,1.27-1.16,1.78-.5.51-1.08.93-1.74,1.24-.63.3-1.33.45-2.09.45h-12.41v-9.38c-.75.28-1.51.53-2.29.72-1.36.35-2.76.55-4.3.62-.03,0-.06,0-.09,0v14.05h19.08c1.64,0,3.2-.25,4.64-.75,1.45-.5,2.74-1.23,3.85-2.16,1.11-.94,2.01-2.09,2.66-3.43.65-1.34.98-2.83.98-4.44,0-2.56-.7-4.82-2.09-6.71"/></g></svg>